<?xml version="1.0" encoding="utf-8"?>
<!-- Generator: Adobe Illustrator 21.0.0, SVG Export Plug-In . SVG Version: 6.00 Build 0)  -->
<svg version="1.1"  xmlns="http://www.w3.org/2000/svg" xmlns:xlink="http://www.w3.org/1999/xlink" x="0px" y="0px"
	 viewBox="0 0 49.7 60" style="enable-background:new 0 0 49.7 60;" xml:space="preserve">
<style type="text/css">
	.st0{fill:#10182F;}
</style>
<g  transform="matrix(0.6905281983329832,0,0,0.6905281983329832,-9.699848352257447,-4.824030035700716)">
	<path class="st0" d="M86,31.2L56.7,7L18,38.7L34,52.4L14,69.4l28.6,24.5l38.7-32.8L66,48C66,48,86,31.2,86,31.2z M56.7,14
		l21.2,17.1L62,44.5l0.1,0L47.4,56.8L26.2,38.8C26.2,38.8,56.7,14,56.7,14z M42.6,86.9L22.2,69.4l15.8-13.5l9.3,7.9l14.7-12.4
		l11,9.6C73.1,61.1,42.6,86.9,42.6,86.9z"/>
</g>
</svg>
